<svg width="24" height="24" viewBox="0 0 24 24" fill="none" xmlns="http://www.w3.org/2000/svg">
<path d="M18.4994 13.7385L18.5 16C18.5 18.7614 15.5898 21 12 21C8.41014 21 5.49999 18.7614 5.49999 16L5.4994 13.7385L10.5132 16.5998C11.3733 17.0906 12.4157 17.1233 13.3001 16.6978L13.487 16.5996L18.4994 13.7385ZM12.4956 2.857L21.4912 7.99134C21.8142 8.17569 21.9953 8.51285 21.9956 8.85988L22 8.85999V15C22 15.5523 21.5523 16 21 16C20.4477 16 20 15.5523 20 15L19.9994 10.5785L12.4956 14.8627C12.1885 15.038 11.8115 15.038 11.5043 14.8627L2.50599 9.72839C2.0263 9.45468 1.85931 8.84393 2.13302 8.36424C2.22172 8.20878 2.35053 8.07998 2.50599 7.99127L11.5043 2.85694C11.8115 2.68166 12.1885 2.68168 12.4956 2.857Z" fill="#2D81E0"/>
</svg>
